<svg width="129" height="122" viewBox="0 0 129 122" fill="none" xmlns="http://www.w3.org/2000/svg">
<g clip-path="url(#clip0_134_33)">
<path fill-rule="evenodd" clip-rule="evenodd" d="M62.2425 0.569336C27.8913 0.569336 0.0361328 28.428 0.0361328 62.7945C0.0361328 90.2877 17.8601 113.612 42.5768 121.84C45.6855 122.416 46.8271 120.49 46.8271 118.847C46.8271 117.363 46.7691 112.461 46.7427 107.262C29.4364 111.026 25.7846 99.9198 25.7846 99.9198C22.955 92.7273 18.8778 90.8152 18.8778 90.8152C13.2341 86.953 19.3032 87.0321 19.3032 87.0321C25.55 87.4713 28.8392 93.4447 28.8392 93.4447C34.3873 102.958 43.3915 100.207 46.9413 98.6177C47.4994 94.5954 49.1118 91.8508 50.8906 90.297C37.074 88.7231 22.5491 83.3875 22.5491 59.5448C22.5491 52.7515 24.9792 47.2003 28.9588 42.8427C28.3128 41.2752 26.1837 34.9465 29.5613 26.3754C29.5613 26.3754 34.7849 24.703 46.6725 32.7539C51.6342 31.3747 56.9559 30.6837 62.2425 30.6602C67.5291 30.6837 72.8547 31.3747 77.8261 32.7539C89.6995 24.703 94.9159 26.3754 94.9159 26.3754C98.3017 34.9465 96.1717 41.2752 95.5257 42.8427C99.5141 47.2003 101.928 52.751 101.928 59.5448C101.928 83.4442 87.3753 88.707 73.5236 90.2472C75.7546 92.1783 77.7427 95.9653 77.7427 101.77C77.7427 110.096 77.6705 116.797 77.6705 118.847C77.6705 120.503 78.7902 122.443 81.9438 121.832C106.647 113.595 124.448 90.2784 124.448 62.7945C124.448 28.428 96.5971 0.569336 62.2425 0.569336Z" fill="white"/>
<path d="M23.3631 89.1941C23.2275 89.504 22.7441 89.5971 22.3048 89.3846C21.8567 89.1809 21.6049 88.7579 21.7502 88.4465C21.8834 88.1272 22.3668 88.0381 22.8138 88.2526C23.2628 88.4558 23.5186 88.8827 23.3631 89.1941ZM26.401 91.934C26.1065 92.2101 25.5306 92.0818 25.1398 91.6456C24.7358 91.2103 24.6602 90.6287 24.9591 90.3481C25.2628 90.0725 25.8212 90.2012 26.2262 90.637C26.6301 91.0771 26.7091 91.6549 26.401 91.934ZM28.4852 95.4396C28.1065 95.7054 27.4875 95.4562 27.1053 94.901C26.727 94.3463 26.727 93.6804 27.1135 93.4136C27.4971 93.1467 28.1065 93.3866 28.494 93.9375C28.8718 94.502 28.8723 95.1674 28.4852 95.4396ZM32.0095 99.4999C31.6709 99.8769 30.9502 99.7761 30.4222 99.261C29.8826 98.7577 29.732 98.0433 30.0715 97.6658C30.414 97.2879 31.1391 97.3941 31.6709 97.9048C32.2071 98.4071 32.3703 99.1268 32.0095 99.4999ZM36.5644 100.871C36.4157 101.359 35.7211 101.582 35.0217 101.374C34.3233 101.16 33.866 100.587 34.007 100.093C34.1523 99.6013 34.8498 99.3697 35.5545 99.592C36.252 99.805 36.7097 100.373 36.5644 100.871ZM41.749 101.452C41.7665 101.967 41.1731 102.394 40.4388 102.403C39.7002 102.419 39.103 102.003 39.0952 101.497C39.0952 100.977 39.675 100.554 40.4132 100.541C41.1475 100.527 41.749 100.94 41.749 101.452ZM46.8416 101.255C46.9298 101.757 46.4193 102.273 45.6903 102.41C44.9734 102.542 44.3099 102.232 44.2183 101.735C44.1292 101.219 44.6494 100.704 45.3648 100.57C46.0952 100.442 46.7486 100.744 46.8416 101.255Z" fill="white"/>
</g>
<defs>
<clipPath id="clip0_134_33">
<rect width="128.964" height="121.378" fill="white" transform="translate(0.0361328 0.569336)"/>
</clipPath>
</defs>
</svg>
