<svg width="428" height="428" viewBox="0 0 428 428" fill="none" xmlns="http://www.w3.org/2000/svg">
<g clip-path="url(#clip0_128_58)">
<path d="M396.301 0.0129395H31.5917C14.1775 0.0129395 0 13.8293 0 30.8423V397.103C0 414.156 14.1775 428 31.5917 428H396.328C413.782 428 428 414.156 428 397.103V30.8423C428 13.8293 413.782 0.0129395 396.301 0.0129395Z" fill="#0177B5"/>
<path d="M63.4641 160.46H127.062V364.696H63.4641V160.46ZM95.2164 58.8096C115.506 58.8096 131.998 75.301 131.998 95.5908C131.998 115.881 115.506 132.412 95.2298 132.412C85.4694 132.391 76.1147 128.505 69.2118 121.605C62.3089 114.705 58.4198 105.351 58.395 95.5908C58.395 90.7573 59.3477 85.9711 61.1987 81.506C63.0496 77.0409 65.7625 72.9844 69.1822 69.5684C72.6019 66.1524 76.6614 63.4439 81.1285 61.5979C85.5956 59.7518 90.3828 58.8043 95.2164 58.8096ZM166.773 160.46H227.656V188.373H228.498C236.978 172.323 257.683 155.39 288.686 155.39C352.966 155.39 364.83 197.696 364.83 252.68V364.709H301.392V265.36C301.392 241.686 300.964 211.191 268.409 211.191C235.373 211.191 230.291 237.005 230.291 263.621V364.656H166.866V160.419L166.773 160.46Z" fill="white"/>
</g>
<defs>
<clipPath id="clip0_128_58">
<rect width="428" height="428" fill="white"/>
</clipPath>
</defs>
</svg>
